<svg xmlns="http://www.w3.org/2000/svg" width="1024" height="1024" viewBox="0 0 1024 1024">
  <defs>
    <linearGradient id="bg" x1="0" y1="0" x2="1" y2="1">
      <stop offset="0" stop-color="#9a5cff"/>
      <stop offset="1" stop-color="#7414ff"/>
    </linearGradient>
    <linearGradient id="mint" x1="0" y1="0" x2="0" y2="1">
      <stop offset="0" stop-color="#8af7d4"/>
      <stop offset="1" stop-color="#2fd39a"/>
    </linearGradient>
  </defs>
  <rect x="0" y="0" width="1024" height="1024" rx="232" fill="url(#bg)"/>
  <g fill="url(#mint)">
    <path d="M512 742 C 408 742 332 690 300 612 C 404 596 488 636 512 742 Z"/>
    <path d="M512 742 C 616 742 692 690 724 612 C 620 596 536 636 512 742 Z"/>
    <path d="M512 742 L 512 612" stroke="#1f9e76" stroke-width="10" stroke-linecap="round" opacity="0.5"/>
  </g>
  <g fill="#ffffff">
    <circle cx="512" cy="326" r="112"/>
    <path d="M428 432 L596 432 L624 506 L400 506 Z"/>
    <path d="M452 506 C 420 580 408 666 372 726 L 652 726 C 616 666 604 580 572 506 Z"/>
    <rect x="332" y="726" width="360" height="92" rx="30"/>
    <rect x="296" y="818" width="432" height="104" rx="40"/>
  </g>
</svg>
